<?xml version="1.0" encoding="UTF-8" standalone="no"?>
<!DOCTYPE svg PUBLIC "-//W3C//DTD SVG 1.1//EN" "http://www.w3.org/Graphics/SVG/1.1/DTD/svg11.dtd">
<svg version="1.1" xmlns="http://www.w3.org/2000/svg" xmlns:xlink="http://www.w3.org/1999/xlink" preserveAspectRatio="xMidYMid meet" viewBox="0 0 640 640" width="640" height="640"><defs><path d="M563.48 320C563.48 454.38 454.38 563.48 320 563.48C185.62 563.48 76.52 454.38 76.52 320C76.52 185.62 185.62 76.52 320 76.52C454.38 76.52 563.48 185.62 563.48 320Z" id="f2tH00x0V4"></path><path d="M478.7 240L324.78 136.3" id="c3uz9OcGv"></path><path d="M427.61 461.74L258.37 491.3" id="aupf29Z0G"></path><path d="M424.35 467.83L154.35 340.22" id="a1iYMwtNhL"></path><path d="M424.35 461.74L475.33 240" id="aXRIsS7F7"></path><path d="M427.61 467.83L206.36 182.07" id="gIv2QrYki"></path><path d="M424.35 458.37L324.78 132.93" id="b2k8j3yRmy"></path><path d="M447.17 458.37C447.17 470.97 436.95 481.2 424.35 481.2C411.75 481.2 401.52 470.97 401.52 458.37C401.52 445.77 411.75 435.54 424.35 435.54C436.95 435.54 447.17 445.77 447.17 458.37Z" id="a6exWv5ogg"></path><path d="M258.37 496.96L475.33 235.87" id="b9vdPkRcK"></path><path d="M486.74 240C486.74 246.3 481.63 251.41 475.33 251.41C469.03 251.41 463.91 246.3 463.91 240C463.91 233.7 469.03 228.59 475.33 228.59C481.63 228.59 486.74 233.7 486.74 240Z" id="f1KtnKZNtr"></path><path d="M258.37 483.59L154.35 336.09" id="b73JD4zCFa"></path><path d="M316.74 150L258.37 492.61" id="g3rdqGOSW9"></path><path d="M204.89 182.07L320 132.93" id="avoMCg8kk"></path><path d="M258.37 481.2L204.89 177.72" id="cQ48jnCPA"></path><path d="M161.96 329.46L324.78 131.2" id="cUucKausi"></path><path d="M165.76 336.09C165.76 342.39 160.65 347.5 154.35 347.5C148.05 347.5 142.93 342.39 142.93 336.09C142.93 329.79 148.05 324.67 154.35 324.67C160.65 324.67 165.76 329.79 165.76 336.09Z" id="a8VQB03k3c"></path><path d="M269.78 492.61C269.78 498.91 264.67 504.02 258.37 504.02C252.07 504.02 246.96 498.91 246.96 492.61C246.96 486.31 252.07 481.2 258.37 481.2C264.67 481.2 269.78 486.31 269.78 492.61Z" id="b3Mbg6X1vE"></path><path d="M342.83 132.93C342.83 145.53 332.6 155.76 320 155.76C307.4 155.76 297.17 145.53 297.17 132.93C297.17 120.34 307.4 110.11 320 110.11C332.6 110.11 342.83 120.34 342.83 132.93Z" id="eFBatDE5l"></path><path d="M216.3 182.07C216.3 188.36 211.19 193.48 204.89 193.48C198.59 193.48 193.48 188.36 193.48 182.07C193.48 175.77 198.59 170.65 204.89 170.65C211.19 170.65 216.3 175.77 216.3 182.07Z" id="bbpuQ6GiA"></path></defs><g><g><g><use xlink:href="#f2tH00x0V4" opacity="1" fill="#8c8c8c" fill-opacity="1"></use></g><g><g><use xlink:href="#c3uz9OcGv" opacity="1" fill-opacity="0" stroke="#b0b0b0" stroke-width="7" stroke-opacity="1"></use></g></g><g><g><use xlink:href="#aupf29Z0G" opacity="1" fill-opacity="0" stroke="#b0b0b0" stroke-width="7" stroke-opacity="1"></use></g></g><g><g><use xlink:href="#a1iYMwtNhL" opacity="1" fill-opacity="0" stroke="#b0b0b0" stroke-width="7" stroke-opacity="1"></use></g></g><g><g><use xlink:href="#aXRIsS7F7" opacity="1" fill-opacity="0" stroke="#b0b0b0" stroke-width="7" stroke-opacity="1"></use></g></g><g><g><use xlink:href="#gIv2QrYki" opacity="1" fill-opacity="0" stroke="#b0b0b0" stroke-width="7" stroke-opacity="1"></use></g></g><g><g><use xlink:href="#b2k8j3yRmy" opacity="1" fill-opacity="0" stroke="#b0b0b0" stroke-width="7" stroke-opacity="1"></use></g></g><g><use xlink:href="#a6exWv5ogg" opacity="1" fill="#dddddd" fill-opacity="1"></use></g><g><g><use xlink:href="#b9vdPkRcK" opacity="1" fill-opacity="0" stroke="#b0b0b0" stroke-width="7" stroke-opacity="1"></use></g></g><g><use xlink:href="#f1KtnKZNtr" opacity="1" fill="#e0e0e0" fill-opacity="1"></use></g><g><g><use xlink:href="#b73JD4zCFa" opacity="1" fill-opacity="0" stroke="#b0b0b0" stroke-width="7" stroke-opacity="1"></use></g></g><g><g><use xlink:href="#g3rdqGOSW9" opacity="1" fill-opacity="0" stroke="#b0b0b0" stroke-width="7" stroke-opacity="1"></use></g></g><g><g><use xlink:href="#avoMCg8kk" opacity="1" fill-opacity="0" stroke="#b0b0b0" stroke-width="7" stroke-opacity="1"></use></g></g><g><g><use xlink:href="#cQ48jnCPA" opacity="1" fill-opacity="0" stroke="#b0b0b0" stroke-width="7" stroke-opacity="1"></use></g></g><g><g><use xlink:href="#cUucKausi" opacity="1" fill-opacity="0" stroke="#b0b0b0" stroke-width="7" stroke-opacity="1"></use></g></g><g><use xlink:href="#a8VQB03k3c" opacity="1" fill="#e0e0e0" fill-opacity="1"></use></g><g><use xlink:href="#b3Mbg6X1vE" opacity="1" fill="#e0e0e0" fill-opacity="1"></use></g><g><use xlink:href="#eFBatDE5l" opacity="1" fill="#dddddd" fill-opacity="1"></use></g><g><use xlink:href="#bbpuQ6GiA" opacity="1" fill="#e0e0e0" fill-opacity="1"></use></g></g></g></svg>